<?xml version="1.0" encoding="UTF-8" standalone="no"?>
<svg width="50px" height="49px" viewBox="0 0 50 49" version="1.1" xmlns="http://www.w3.org/2000/svg" xmlns:xlink="http://www.w3.org/1999/xlink">
    <!-- Generator: Sketch 40.3 (33839) - http://www.bohemiancoding.com/sketch -->
    <title>dribbble-logo</title>
    <desc>Created with Sketch.</desc>
    <defs></defs>
    <g id="Page-1" stroke="none" stroke-width="1" fill="none" fill-rule="evenodd">
        <g id="dribbble-logo" fill="#1A1918">
            <path d="M36.517,42.231 C36.302,40.955 35.177,34.76 32.407,27.151 C39.223,26.061 45.128,27.93 45.564,28.073 C44.624,33.955 41.257,39.03 36.517,42.231 L36.517,42.231 Z M24.721,45.832 C19.611,45.832 14.925,44.016 11.273,40.994 C11.551,41.219 11.745,41.364 11.745,41.364 C11.745,41.364 15.792,32.537 28.313,28.176 C28.359,28.159 28.405,28.145 28.452,28.131 C31.423,35.85 32.65,42.315 32.962,44.16 C30.43,45.237 27.644,45.832 24.721,45.832 L24.721,45.832 Z M3.61,24.719 C3.61,24.494 3.619,24.274 3.627,24.053 C3.999,24.061 14.431,24.297 25.3,21.045 C25.905,22.229 26.484,23.432 27.013,24.633 C26.734,24.711 26.457,24.795 26.181,24.885 C14.788,28.567 9.01,38.819 9.01,38.819 C9.01,38.819 9.017,38.825 9.018,38.828 C5.656,35.088 3.61,30.143 3.61,24.719 L3.61,24.719 Z M15.713,5.627 C15.993,6.004 19.898,11.297 23.552,17.791 C13.415,20.485 4.618,20.379 4.061,20.369 C5.433,13.83 9.825,8.409 15.713,5.627 L15.713,5.627 Z M19.664,4.223 C19.663,4.225 19.66,4.227 19.66,4.227 C19.66,4.227 19.636,4.233 19.597,4.241 C19.618,4.235 19.642,4.231 19.664,4.223 L19.664,4.223 Z M38.663,8.877 C38.611,8.959 35.605,13.535 27.636,16.522 C24.028,9.891 20.063,4.623 19.745,4.205 C21.341,3.819 23.005,3.61 24.721,3.61 C30.066,3.61 34.944,5.602 38.663,8.877 L38.663,8.877 Z M45.824,24.51 C45.519,24.444 38.374,22.907 31.12,23.819 C30.972,23.457 30.821,23.094 30.665,22.729 C30.226,21.696 29.753,20.672 29.262,19.666 C37.599,16.264 40.984,11.369 41.024,11.311 C43.985,14.907 45.776,19.5 45.824,24.51 L45.824,24.51 Z M48.937,19.744 C48.613,18.157 48.126,16.592 47.495,15.098 C46.876,13.631 46.109,12.219 45.216,10.899 C44.332,9.59 43.317,8.36 42.199,7.243 C41.081,6.123 39.851,5.108 38.542,4.225 C37.222,3.33 35.808,2.565 34.343,1.944 C32.85,1.315 31.286,0.826 29.697,0.504 C28.07,0.17 26.395,0 24.721,0 C23.045,0 21.37,0.17 19.741,0.504 C18.154,0.826 16.59,1.315 15.097,1.944 C13.632,2.565 12.218,3.33 10.897,4.225 C9.588,5.108 8.358,6.123 7.239,7.243 C6.122,8.36 5.108,9.59 4.224,10.899 C3.331,12.219 2.564,13.631 1.945,15.098 C1.313,16.592 0.827,18.157 0.502,19.744 C0.169,21.369 0,23.045 0,24.719 C0,26.397 0.169,28.073 0.502,29.7 C0.827,31.287 1.313,32.852 1.945,34.344 C2.564,35.809 3.331,37.225 4.224,38.545 C5.108,39.854 6.122,41.082 7.239,42.201 C8.358,43.319 9.588,44.332 10.897,45.217 C12.218,46.11 13.632,46.877 15.097,47.496 C16.59,48.129 18.154,48.612 19.741,48.938 C21.37,49.274 23.045,49.442 24.721,49.442 C26.395,49.442 28.07,49.274 29.697,48.938 C31.286,48.612 32.85,48.129 34.343,47.496 C35.808,46.877 37.222,46.11 38.542,45.217 C39.851,44.332 41.081,43.319 42.199,42.201 C43.317,41.082 44.332,39.854 45.216,38.545 C46.109,37.225 46.876,35.809 47.495,34.344 C48.126,32.852 48.613,31.287 48.937,29.7 C49.271,28.073 49.44,26.397 49.44,24.719 C49.44,23.045 49.271,21.369 48.937,19.744 L48.937,19.744 Z" id="Fill-11-Copy"></path>
        </g>
    </g>
</svg>