<?xml version="1.0" encoding="UTF-8" standalone="no"?>
<svg width="199px" height="76px" viewBox="0 0 199 76" version="1.1" xmlns="http://www.w3.org/2000/svg" xmlns:xlink="http://www.w3.org/1999/xlink">
    <!-- Generator: Sketch 40.3 (33839) - http://www.bohemiancoding.com/sketch -->
    <title>made-by-max-logo</title>
    <desc>Created with Sketch.</desc>
    <defs></defs>
    <g id="Page-1" stroke="none" stroke-width="1" fill="none" fill-rule="evenodd">
        <g id="made-by-max-logo">
            <g id="Group" transform="translate(4.500000, 2.100000)">
                <polygon id="Combined-Shape" stroke="#D18B65" stroke-width="5.78124" points="22.05 68.1 0 68.1 0 3.6 44.1 3.6 44.1 68.1 22.05 68.1 44.1 68.1 44.1 31.1053998 22.05 51.2182907 3.36871108e-11 31.1053998 0 68.1 22.05 68.1 0 68.1 0 7.55732948 22.05 27.6702203 44.1 7.55732948 44.1 68.1 22.05 68.1"></polygon>
                <path d="M90.0821206,5.29434079 C90.0050264,5.16839555 89.9210048,5.04803948 89.8300557,4.93327214 C89.5577173,4.58961221 89.2256605,4.31516569 88.8338754,4.10992434 C88.4420902,3.904683 87.9977553,3.80206386 87.5008571,3.80206386 C87.0517375,3.80206386 86.6336804,3.87127212 86.2466732,4.0096907 C85.8596659,4.14810928 85.5419425,4.38437194 85.2934934,4.71848576 L85.2648264,4.71848576 L85.2648264,0.107738095 L83.1147969,0.107738095 L83.1147969,10.9329717 L85.092824,10.9329717 L85.092824,10.0165498 L85.1214911,10.0165498 C85.2074927,10.1406493 85.3197709,10.2671333 85.458329,10.3960058 C85.5968872,10.5248783 85.7593322,10.6418163 85.945669,10.7468235 C86.1320059,10.8518307 86.3350622,10.9377444 86.5548441,11.0045672 C86.774626,11.07139 87.008738,11.1048008 87.2571871,11.1048008 C87.7731967,11.1048008 88.2414207,11.0165007 88.661873,10.8398976 C89.0823253,10.6632946 89.4430489,10.4150995 89.7440545,10.0953049 C90.0450602,9.77551019 90.2767832,9.39605805 90.4392307,8.95693703 C90.6016782,8.51781601 90.6829007,8.03574473 90.6829007,7.51070872 C90.6829007,7.08689692 90.6267815,6.67936693 90.5145414,6.28810956 L92.5605932,10.9902481 L92.4029244,11.3911827 C92.3264785,11.5821049 92.2548116,11.7491593 92.1879214,11.8923509 C92.1210313,12.0355425 92.0374198,12.1572536 91.9370846,12.2574878 C91.8367494,12.3577219 91.7101378,12.4340896 91.5572461,12.4865932 C91.4043543,12.5390968 91.2084647,12.5653482 90.9695713,12.5653482 C90.6255649,12.5653482 90.2911192,12.4937535 89.9662242,12.3505619 L89.6795536,14.1118102 C90.1955633,14.2836402 90.7306764,14.3695538 91.284909,14.3695538 C91.8009187,14.3695538 92.2165869,14.3194375 92.5319261,14.2192034 C92.8472654,14.1189692 93.1076552,13.9710068 93.3131035,13.7753115 C93.5185518,13.5796163 93.6881636,13.3385806 93.8219438,13.0521974 C93.9557241,12.7658141 94.0942802,12.4364783 94.2376162,12.06418 L97.3909928,3.97389297 L95.1836292,3.97389297 L93.6499415,8.57032154 L93.6212744,8.57032154 L91.8295832,3.97389297 L89.5075513,3.97389297 L90.0821206,5.29434079 Z M73.8840035,6.16212554 L73.8840035,0.107738095 L71.733974,0.107738095 L71.733974,4.71848576 L71.7053069,4.71848576 C71.4568578,4.38437194 71.1391344,4.14810928 70.7521271,4.0096907 C70.3651199,3.87127212 69.9470628,3.80206386 69.4979433,3.80206386 C69.0010451,3.80206386 68.5567101,3.904683 68.164925,4.10992434 C67.7731398,4.31516569 67.4410831,4.58961221 67.1687446,4.93327214 C67.0034943,5.14179909 66.861114,5.36877624 66.7416023,5.61420623 C66.641399,5.27473956 66.4923322,4.9809411 66.2943993,4.73280485 C66.0507281,4.42732936 65.725838,4.19583968 65.3197192,4.03832888 C64.9136005,3.88081808 64.3952097,3.80206386 63.7645312,3.80206386 C63.1911871,3.80206386 62.6369629,3.89513703 62.1018417,4.08128616 C61.5667206,4.26743529 61.0984966,4.54665479 60.6971558,4.91895305 L61.8438382,6.0931186 C62.0731758,5.83537366 62.3335657,5.63252188 62.6250156,5.48455719 C62.9164655,5.3365925 63.2389667,5.26261126 63.5925289,5.26261126 C63.9652025,5.26261126 64.2877037,5.37477636 64.5600421,5.59910992 C64.8323806,5.82344349 64.9685477,6.12652791 64.9685477,6.50837227 C64.67232,6.50837227 64.3498188,6.51314526 64.0010345,6.52269137 C63.6522502,6.53223748 63.3034711,6.56087537 62.9546868,6.60860592 C62.6059025,6.65633646 62.2690679,6.7303177 61.9441729,6.83055185 C61.6192779,6.93078599 61.3302213,7.07158899 61.0769943,7.25296506 C60.9753598,7.32576169 60.882192,7.40624658 60.7974905,7.49442016 L60.7974905,6.8233923 C60.7974905,6.4033635 60.7568792,6.0095924 60.6756555,5.6420672 C60.5944317,5.274542 60.4606535,4.95475214 60.2743166,4.68268803 C60.0879798,4.41062392 59.8347566,4.19583968 59.5146395,4.03832888 C59.1945224,3.88081808 58.8003543,3.80206386 58.3321233,3.80206386 C57.8161136,3.80206386 57.3813342,3.89752352 57.0277721,4.08844571 C56.6742099,4.27936789 56.3732088,4.59915775 56.1247597,5.04782488 C55.933645,4.61824997 55.6493661,4.30323309 55.2719146,4.1027648 C54.8944631,3.90229651 54.4620726,3.80206386 53.9747302,3.80206386 C53.7167253,3.80206386 53.4778355,3.83547474 53.2580537,3.90229751 C53.0382718,3.96912027 52.8423821,4.05503397 52.6703789,4.16004117 C52.4983757,4.26504837 52.350264,4.38437294 52.2260395,4.51801847 C52.1018149,4.651664 52.006259,4.78530752 51.9393689,4.91895305 L51.9107018,4.91895305 L51.9107018,3.97389297 L49.8466735,3.97389297 L49.8466735,10.9329717 L51.996703,10.9329717 L51.996703,7.46775145 C51.996703,7.23864483 52.0110364,7.01908761 52.0397036,6.80907321 C52.0683708,6.59905881 52.1280932,6.41052598 52.2188727,6.24346907 C52.3096522,6.07641216 52.4410416,5.94276864 52.6130448,5.84253449 C52.785048,5.74230034 53.0096044,5.69218402 53.2867207,5.69218402 C53.5351698,5.69218402 53.7238927,5.74945982 53.8528952,5.86401313 C53.9818976,5.97856644 54.0750646,6.11698294 54.132399,6.2792668 C54.1897334,6.44155066 54.223178,6.61337804 54.2327337,6.79475412 C54.2422894,6.97613019 54.2470672,7.12886565 54.2470672,7.25296506 L54.2470672,10.9329717 L56.3970967,10.9329717 L56.3970967,7.25296506 C56.3970967,7.04295066 56.4185968,6.84248538 56.4615976,6.6515632 C56.5045984,6.46064101 56.5762654,6.29358661 56.6766006,6.15039497 C56.7769358,6.00720333 56.9107141,5.89503823 57.0779394,5.81389631 C57.2451648,5.73275438 57.4529989,5.69218402 57.701448,5.69218402 C58.0550102,5.69218402 58.3010666,5.80912211 58.4396248,6.04300178 C58.5781829,6.27688145 58.647461,6.55610096 58.647461,6.88066867 L58.647461,10.9329717 L60.7974905,10.9329717 L60.7974905,10.3784018 C60.859731,10.4433395 60.9266208,10.5040972 60.9981599,10.5606753 C61.2274975,10.7420514 61.4926652,10.8780814 61.7936708,10.9687695 C62.0946765,11.0594575 62.4076221,11.1048008 62.7325171,11.1048008 C63.1720808,11.1048008 63.590138,11.0236601 63.9867009,10.8613763 C64.3832639,10.6990924 64.7009873,10.4318054 64.9398807,10.0595071 L64.9685477,10.0595071 L64.9685477,10.9329717 L66.9465749,10.9329717 L66.9465749,9.71216963 C67.0396414,9.8481975 67.1423649,9.97590904 67.2547458,10.0953049 C67.5557514,10.4150995 67.916475,10.6632946 68.3369273,10.8398976 C68.7573796,11.0165007 69.2256036,11.1048008 69.7416133,11.1048008 C69.9805066,11.1048008 70.2122297,11.07139 70.4367895,11.0045672 C70.6613492,10.9377444 70.8667945,10.8518307 71.0531313,10.7468235 C71.2394681,10.6418163 71.4019131,10.5248783 71.5404713,10.3960058 C71.6790294,10.2671333 71.7913076,10.1406493 71.8773093,10.0165498 L71.9059763,10.0165498 L71.9059763,10.9329717 L73.8840035,10.9329717 L73.8840035,8.74473917 C73.9102648,8.81673052 73.9389318,8.88746312 73.9700047,8.95693703 C74.1706751,9.40560416 74.4453983,9.78982929 74.7941826,10.1096239 C75.1429669,10.4294186 75.5538574,10.6752272 76.0268662,10.8470572 C76.4998751,11.0188872 77.0039325,11.1048008 77.5390536,11.1048008 C78.102842,11.1048008 78.6475107,10.9854763 79.1730761,10.7468235 C79.6986415,10.5081708 80.1334209,10.169289 80.4774273,9.730168 L78.9724067,8.62759791 C78.7908477,8.87579675 78.5782358,9.07864852 78.3345646,9.23615932 C78.0908933,9.39367012 77.7922811,9.47242434 77.4387189,9.47242434 C77.0182666,9.47242434 76.6647097,9.35071328 76.3780377,9.10728749 C76.0913657,8.86386171 75.9050316,8.53691238 75.81903,8.12642968 L80.8070985,8.12642968 L80.8070985,7.45343235 C80.8070985,6.89975802 80.7306538,6.39859481 80.577762,5.94992768 C80.4248703,5.50126055 80.2074806,5.11703542 79.9255864,4.79724077 C79.6436922,4.47744611 79.299691,4.23163749 78.8935722,4.05980752 C78.4874535,3.88797756 78.0359518,3.80206386 77.5390536,3.80206386 C77.0039325,3.80206386 76.4998751,3.88797756 76.0268662,4.05980752 C75.5538574,4.23163749 75.1429669,4.47744611 74.7941826,4.79724077 C74.4453983,5.11703542 74.1706751,5.50126055 73.9700047,5.94992768 C73.9389318,6.01940158 73.9102648,6.09013419 73.8840035,6.16212554 Z M167.335544,65.1726929 L167.335544,70.9026125 C166.396379,71.2412003 165.419663,71.466922 164.405366,71.5797846 C163.391068,71.6926472 162.395569,71.7490777 161.418838,71.7490777 C159.991308,71.7490777 158.676498,71.5985965 157.474368,71.2976296 C156.272237,70.9966627 155.220389,70.5170039 154.318791,69.8586388 C153.417193,69.2002737 152.712831,68.3444119 152.205682,67.2910278 C151.698533,66.2376437 151.444963,64.9585535 151.444963,63.4537191 L151.444963,50.4181555 L147.879813,50.4181555 C147.905305,50.5483586 147.92913,50.680031 147.951289,50.8131726 C148.214255,52.3932488 148.345736,54.1049724 148.345736,55.9483946 L148.345736,71.0719055 L139.893299,71.0719055 L139.893299,57.6413249 C139.893299,56.8512868 139.865125,56.0330453 139.808775,55.186576 C139.752425,54.3401066 139.583378,53.5594854 139.301629,52.844689 C139.019879,52.1298926 138.58787,51.546778 138.005588,51.0953277 C137.423306,50.6438773 136.587463,50.4181555 135.498032,50.4181555 C134.408601,50.4181555 133.5258,50.6156621 132.849602,51.0106811 C132.173404,51.4057002 131.656871,51.9323844 131.299988,52.5907494 C130.943106,53.2491145 130.708318,53.9921154 130.595619,54.8197744 C130.482919,55.6474333 130.42657,56.5127002 130.42657,57.4156009 L130.42657,71.0719055 L121.974133,71.0719055 L121.974133,61.952772 C121.828582,62.4089814 121.659534,62.8528658 121.466987,63.284426 C120.678089,65.0526065 119.598066,66.5668235 118.226886,67.8271224 C116.855706,69.0874213 115.240368,70.0561439 113.380823,70.7333195 C111.521277,71.410495 109.53967,71.7490777 107.435942,71.7490777 C105.332214,71.7490777 103.350607,71.410495 101.491062,70.7333195 C99.6315163,70.0561439 98.0161779,69.0874213 96.644998,67.8271224 C95.2738181,66.5668235 94.1937953,65.0526065 93.4048973,63.284426 C93.2123508,62.8528658 93.043302,62.4089814 92.8977509,61.952772 L92.8977509,71.0719055 L84.4453143,71.0719055 L84.4453143,55.1019294 C84.4453143,53.8228201 84.1729607,52.7224264 83.6282454,51.8007153 C83.0835301,50.8790042 82.1162053,50.4181555 80.7262421,50.4181555 C79.7495112,50.4181555 78.9324505,50.5780418 78.2750355,50.8978191 C77.6176205,51.2175964 77.0916963,51.6596349 76.6972473,52.2239479 C76.3027983,52.7882608 76.0210532,53.446616 75.8520037,54.1990333 C75.6829541,54.9514505 75.5984305,55.7414768 75.5984305,56.5691357 L75.5984305,71.0719055 L67.1459939,71.0719055 L67.1459939,56.5691357 C67.1459939,56.0800645 67.1272109,55.4781397 67.0896443,54.7633434 C67.0520777,54.048547 66.9205967,53.3713816 66.6951973,52.731827 C66.4697978,52.0922723 66.1035292,51.546778 65.5963805,51.0953277 C65.0892318,50.6438773 64.3473031,50.4181555 63.3705722,50.4181555 C62.2811415,50.4181555 61.3983403,50.6156621 60.722142,51.0106811 C60.0459437,51.4057002 59.5294111,51.9323844 59.1725286,52.5907494 C58.8156462,53.2491145 58.5808586,53.9921154 58.4681589,54.8197744 C58.3554592,55.6474333 58.2991102,56.5127002 58.2991102,57.4156009 L58.2991102,71.0719055 L49.8466735,71.0719055 L49.8466735,43.6464342 L57.9610127,43.6464342 L57.9610127,47.3708809 L58.0737119,47.3708809 C58.3366779,46.8441889 58.712338,46.3175047 59.2007034,45.7908126 C59.6890689,45.2641206 60.271342,44.7938668 60.9475403,44.3800374 C61.6237386,43.9662079 62.3938418,43.6276252 63.257873,43.3642792 C64.1219042,43.1009331 65.0610544,42.9692621 66.0753519,42.9692621 C67.9912471,42.9692621 69.6911091,43.3642752 71.1749887,44.1543133 C72.6588683,44.9443514 73.7764571,46.1858212 74.5277886,47.87876 C75.5045195,46.1105795 76.6878488,44.8502995 78.077812,44.0978823 C79.4677752,43.3454651 81.1770286,42.9692621 83.2056236,42.9692621 C85.0463856,42.9692621 86.5959835,43.2796295 87.8544637,43.9003738 C89.1129439,44.521118 90.1084432,45.3675747 90.8409913,46.4397693 C91.5735395,47.5119638 92.0994637,48.7722438 92.4187795,50.220647 C92.6143539,51.107764 92.7500348,52.0336824 92.8258232,52.9984128 C92.9867174,52.4600602 93.179742,51.938561 93.4048973,51.4339137 C94.1937953,49.6657332 95.2738181,48.1515162 96.644998,46.8912173 C98.0161779,45.6309185 99.6315163,44.6621958 101.491062,43.9850203 C103.350607,43.3078448 105.332214,42.9692621 107.435942,42.9692621 C109.53967,42.9692621 111.521277,43.3078448 113.380823,43.9850203 C115.240368,44.6621958 116.855706,45.6309185 118.226886,46.8912173 C119.598066,48.1515162 120.678089,49.6657332 121.466987,51.4339137 C121.659534,51.8654739 121.828582,52.3093583 121.974133,52.7655678 L121.974133,43.6464342 L130.088473,43.6464342 L130.088473,47.3708809 L130.201172,47.3708809 C130.464138,46.8441889 130.839798,46.3175047 131.328163,45.7908126 C131.816529,45.2641206 132.398802,44.7938668 133.075,44.3800374 C133.751199,43.9662079 134.521302,43.6276252 135.385333,43.3642792 C136.249364,43.1009331 137.188514,42.9692621 138.202812,42.9692621 C140.344106,42.9692621 142.072143,43.2984397 143.386973,43.9568048 C144.465789,44.4969923 145.348593,45.2081281 146.035403,46.0902272 L146.035403,43.6464342 L151.444963,43.6464342 L151.444963,35.5203686 L159.897399,35.5203686 L159.897399,43.6464342 L167.335544,43.6464342 L167.335544,49.5456468 C167.964228,48.5620585 168.706162,47.6772523 169.561352,46.8912173 C170.932532,45.6309185 172.54787,44.6621958 174.407416,43.9850203 C176.266961,43.3078448 178.248568,42.9692621 180.352296,42.9692621 C182.305758,42.9692621 184.080752,43.3078448 185.677331,43.9850203 C187.273911,44.6621958 188.626287,45.6309185 189.734501,46.8912173 C190.842715,48.1515162 191.697342,49.6657332 192.298407,51.4339137 C192.899472,53.2020942 193.2,55.1771599 193.2,57.3591699 L193.2,60.0114274 L173.590347,60.0114274 C173.928446,61.6291245 174.660983,62.9176197 175.78798,63.8769516 C176.914978,64.8362836 178.30492,65.3159424 179.957849,65.3159424 C181.347812,65.3159424 182.52175,65.005575 183.479698,64.3848307 C184.437645,63.7640865 185.273489,62.9646552 185.987254,61.9865128 L191.90396,66.3317006 C190.551563,68.0622603 188.84231,69.3977808 186.776148,70.3383024 C184.709987,71.2788239 182.568724,71.7490777 180.352296,71.7490777 C178.248568,71.7490777 176.266961,71.410495 174.407416,70.7333195 C172.54787,70.0561439 170.932532,69.0874213 169.561352,67.8271224 C168.706162,67.0410874 167.964228,66.1562813 167.335544,65.1726929 Z M166.772371,64.2085841 C166.466625,64.346499 166.100246,64.4428682 165.673231,64.4976928 C164.940683,64.5917449 164.349018,64.6387703 163.898219,64.6387703 C162.996622,64.6387703 162.273476,64.5165043 161.728761,64.2719687 C161.184045,64.0274331 160.780211,63.6794454 160.517245,63.227995 C160.254279,62.7765447 160.085232,62.2404554 160.010099,61.6197112 C159.934965,60.998967 159.897399,60.3123965 159.897399,59.5599793 L159.897399,50.4181555 L166.821565,50.4181555 C166.643488,50.7468791 166.476717,51.0854651 166.321251,51.4339137 C165.532353,53.2020942 165.13791,55.1771599 165.13791,57.3591699 C165.13791,59.5411799 165.532353,61.5162455 166.321251,63.284426 C166.462316,63.6005988 166.612689,63.9086514 166.772371,64.2085841 Z M116.311001,40.8410068 L110.42247,40.8410068 L110.42247,37.3987151 L110.309771,37.3987151 C109.370606,38.8659288 108.121536,39.9192971 106.562524,40.5588518 C105.003511,41.1984064 103.359998,41.5181789 101.631936,41.5181789 C100.354672,41.5181789 99.1243853,41.3394825 97.9410383,40.9820843 C96.7576912,40.6246862 95.7152345,40.0885969 94.8136367,39.3738005 C94.0348625,38.75638 93.3962385,38.012659 92.8977509,37.1426205 L92.8977509,40.8410068 L84.4453143,40.8410068 L84.4453143,24.8710307 C84.4453143,23.5919214 84.1729607,22.4915277 83.6282454,21.5698166 C83.0835301,20.6481055 82.1162053,20.1872568 80.7262421,20.1872568 C79.7495112,20.1872568 78.9324505,20.3471431 78.2750355,20.6669204 C77.6176205,20.9866977 77.0916963,21.4287362 76.6972473,21.9930492 C76.3027983,22.5573621 76.0210532,23.2157173 75.8520037,23.9681345 C75.6829541,24.7205518 75.5984305,25.510578 75.5984305,26.338237 L75.5984305,40.8410068 L67.1459939,40.8410068 L67.1459939,26.338237 C67.1459939,25.8491658 67.1272109,25.247241 67.0896443,24.5324447 C67.0520777,23.8176483 66.9205967,23.1404829 66.6951973,22.5009283 C66.4697978,21.8613736 66.1035292,21.3158793 65.5963805,20.8644289 C65.0892318,20.4129786 64.3473031,20.1872568 63.3705722,20.1872568 C62.2811415,20.1872568 61.3983403,20.3847634 60.722142,20.7797824 C60.0459437,21.1748015 59.5294111,21.7014857 59.1725286,22.3598507 C58.8156462,23.0182158 58.5808586,23.7612167 58.4681589,24.5888757 C58.3554592,25.4165346 58.2991102,26.2818015 58.2991102,27.1847022 L58.2991102,40.8410068 L49.8466735,40.8410068 L49.8466735,13.4155355 L57.9610127,13.4155355 L57.9610127,17.1399822 L58.0737119,17.1399822 C58.3366779,16.6132902 58.712338,16.086606 59.2007034,15.5599139 C59.6890689,15.0332219 60.271342,14.5629681 60.9475403,14.1491386 C61.6237386,13.7353092 62.3938418,13.3967265 63.257873,13.1333804 C64.1219042,12.8700344 65.0610544,12.7383634 66.0753519,12.7383634 C67.9912471,12.7383634 69.6911091,13.1333765 71.1749887,13.9234146 C72.6588683,14.7134527 73.7764571,15.9549225 74.5277886,17.6478613 C75.5045195,15.8796808 76.6878488,14.6194008 78.077812,13.8669836 C79.4677752,13.1145664 81.1770286,12.7383634 83.2056236,12.7383634 C85.0463856,12.7383634 86.5959835,13.0487308 87.8544637,13.6694751 C89.1129439,14.2902193 90.1084432,15.136676 90.8409913,16.2088705 C91.5735395,17.2810651 92.0994637,18.5413451 92.4187795,19.9897483 C92.7380954,21.4381515 92.8977509,22.9899887 92.8977509,24.6453067 L92.8977509,28.7935976 C93.4642237,27.8153967 94.2061537,26.9969502 95.1235594,26.338237 C96.1190736,25.6234406 97.2554454,25.0685412 98.5327089,24.6735222 C99.8099723,24.2785031 101.134174,23.9869458 102.505354,23.7988415 C103.876534,23.6107372 105.247693,23.4978763 106.618873,23.4602554 C107.990053,23.4226346 109.257906,23.4038244 110.42247,23.4038244 C110.42247,21.89899 109.887154,20.7045455 108.816507,19.8204552 C107.745859,18.936365 106.478007,18.4943265 105.01291,18.4943265 C103.622947,18.4943265 102.355094,18.7858838 101.209314,19.3690072 C100.063533,19.9521305 99.0398596,20.7515618 98.1382618,21.7673251 L93.6302956,17.1399822 C95.2080917,15.6727686 97.0488261,14.5723749 99.1525542,13.8387681 C101.256282,13.1051613 103.435111,12.7383634 105.689105,12.7383634 C108.168499,12.7383634 110.206455,13.0487308 111.803034,13.6694751 C113.399614,14.2902193 114.676858,15.2025115 115.634806,16.4063791 C116.592753,17.6102467 117.25955,19.0868434 117.635216,20.8362134 C118.010881,22.5855835 118.198712,24.6076745 118.198712,26.9025471 L118.198712,35.7210684 L125.242409,26.168944 L116.113777,13.4155355 L126.087653,13.4155355 L130.933716,20.8644289 L135.610731,13.4155355 L145.021111,13.4155355 L136.117877,26.168944 L146.655248,40.8410068 L136.681373,40.8410068 L130.708318,31.699183 L124.284466,40.8410068 L116.311001,40.8410068 Z M108.337535,28.8212015 C107.698904,28.8212015 106.900626,28.8494167 105.942678,28.905848 C104.984731,28.9622793 104.064363,29.1221656 103.181549,29.3855116 C102.298735,29.6488576 101.547414,30.0438708 100.927566,30.5705628 C100.307717,31.0972549 99.9977979,31.8308507 99.9977979,32.7713723 C99.9977979,33.7871355 100.429807,34.5395415 101.293838,35.0286127 C102.157869,35.5176839 103.059454,35.7622158 103.998618,35.7622158 C104.825083,35.7622158 105.62336,35.6493549 106.393475,35.4236298 C107.16359,35.1979046 107.849169,34.8781321 108.450235,34.4643026 C109.0513,34.0504731 109.530266,33.5237889 109.887149,32.8842343 C110.244031,32.2446796 110.42247,31.4922737 110.42247,30.6269938 L110.42247,28.8212015 L108.337535,28.8212015 Z M100.673993,57.3591699 C100.673993,59.4283173 101.265657,61.1024205 102.449005,62.3815298 C103.632352,63.6606392 105.294647,64.3001842 107.435942,64.3001842 C109.577237,64.3001842 111.239533,63.6606392 112.42288,62.3815298 C113.606227,61.1024205 114.197891,59.4283173 114.197891,57.3591699 C114.197891,55.2900225 113.606227,53.6159192 112.42288,52.3368099 C111.239533,51.0577006 109.577237,50.4181555 107.435942,50.4181555 C105.294647,50.4181555 103.632352,51.0577006 102.449005,52.3368099 C101.265657,53.6159192 100.673993,55.2900225 100.673993,57.3591699 Z M184.747563,54.2554643 C184.78513,52.8258715 184.315555,51.6032118 183.338824,50.5874486 C182.362093,49.5716853 181.103632,49.0638113 179.563402,49.0638113 C178.624238,49.0638113 177.797786,49.2142925 177.084021,49.5152594 C176.370256,49.8162262 175.759808,50.2018343 175.252659,50.6720951 C174.745511,51.1423559 174.351068,51.6878502 174.069318,52.3085944 C173.787569,52.9293386 173.627913,53.5782888 173.590347,54.2554643 L184.747563,54.2554643 Z M64.4382071,7.88300512 C64.2757596,7.88300512 64.0727033,7.89016459 63.8290321,7.90448376 C63.5853609,7.91880292 63.3512489,7.95937328 63.1266891,8.02619604 C62.9021294,8.0930188 62.7110175,8.19325145 62.5533479,8.32689697 C62.3956783,8.4605425 62.3168447,8.64668884 62.3168447,8.88534157 C62.3168447,9.14308651 62.426734,9.33400583 62.6465159,9.45810525 C62.8662978,9.58220467 63.095632,9.64425345 63.3345253,9.64425345 C63.5447515,9.64425345 63.7478078,9.61561555 63.9437003,9.5583389 C64.1395929,9.50106224 64.3139824,9.41992153 64.4668742,9.31491433 C64.6197659,9.20990713 64.7415997,9.07626361 64.8323792,8.91397975 C64.9231587,8.7516959 64.9685477,8.56077658 64.9685477,8.34121607 L64.9685477,7.88300512 L64.4382071,7.88300512 Z M71.9059763,7.45343235 C71.9059763,6.92839635 71.7554758,6.50360087 71.4544701,6.17903316 C71.1534645,5.85446544 70.7306296,5.69218402 70.1859527,5.69218402 C69.6412758,5.69218402 69.2184409,5.85446544 68.9174353,6.17903316 C68.6164297,6.50360087 68.4659291,6.92839635 68.4659291,7.45343235 C68.4659291,7.97846836 68.6164297,8.40326384 68.9174353,8.72783155 C69.2184409,9.05239926 69.6412758,9.21468069 70.1859527,9.21468069 C70.7306296,9.21468069 71.1534645,9.05239926 71.4544701,8.72783155 C71.7554758,8.40326384 71.9059763,7.97846836 71.9059763,7.45343235 Z M78.657069,6.66588229 C78.6666247,6.30313014 78.5471798,5.99288625 78.2987307,5.7351413 C78.0502816,5.47739635 77.7301693,5.34852581 77.3383842,5.34852581 C77.0994909,5.34852581 76.8892679,5.38670968 76.7077089,5.46307855 C76.5261499,5.53944742 76.3708716,5.63729357 76.2418692,5.75661994 C76.1128668,5.8759463 76.012533,6.01436281 75.940865,6.17187361 C75.869197,6.32938441 75.8285858,6.49405232 75.81903,6.66588229 L78.657069,6.66588229 Z M85.092824,7.45343235 C85.092824,7.97846836 85.2433246,8.40326384 85.5443302,8.72783155 C85.8453358,9.05239926 86.2681708,9.21468069 86.8128476,9.21468069 C87.3575245,9.21468069 87.7803594,9.05239926 88.081365,8.72783155 C88.3823707,8.40326384 88.5328712,7.97846836 88.5328712,7.45343235 C88.5328712,6.92839635 88.3823707,6.50360087 88.081365,6.17903316 C87.7803594,5.85446544 87.3575245,5.69218402 86.8128476,5.69218402 C86.2681708,5.69218402 85.8453358,5.85446544 85.5443302,6.17903316 C85.2433246,6.50360087 85.092824,6.92839635 85.092824,7.45343235 Z" id="Combined-Shape" fill="#D18B65"></path>
            </g>
        </g>
    </g>
</svg>