<?xml version="1.0" encoding="UTF-8" standalone="no"?>
<svg width="50px" height="50px" viewBox="0 0 50 50" version="1.1" xmlns="http://www.w3.org/2000/svg" xmlns:xlink="http://www.w3.org/1999/xlink">
    <!-- Generator: Sketch 40.3 (33839) - http://www.bohemiancoding.com/sketch -->
    <title>old-ig-logo</title>
    <desc>Created with Sketch.</desc>
    <defs></defs>
    <g id="Page-1" stroke="none" stroke-width="1" fill="none" fill-rule="evenodd">
        <g id="old-ig-logo" fill="#1A1918">
            <path d="M44.746,39.995 C44.746,42.615 42.615,44.745 39.995,44.745 L9.581,44.745 C6.961,44.745 4.83,42.615 4.83,39.995 L4.83,19.699 L12.231,19.699 C11.592,21.271 11.233,22.988 11.233,24.788 C11.233,32.26 17.313,38.343 24.788,38.343 C32.264,38.343 38.344,32.26 38.344,24.788 C38.344,22.988 37.983,21.271 37.344,19.699 L44.746,19.699 L44.746,39.995 L44.746,39.995 Z M17.713,19.699 C19.3,17.502 21.876,16.061 24.788,16.061 C27.7,16.061 30.277,17.502 31.863,19.699 C32.897,21.134 33.515,22.887 33.515,24.788 C33.515,29.597 29.598,33.511 24.788,33.511 C19.977,33.511 16.063,29.597 16.063,24.788 C16.063,22.887 16.68,21.134 17.713,19.699 L17.713,19.699 Z M42.743,5.714 L43.839,5.71 L43.839,14.112 L35.464,14.139 L35.436,5.737 L42.743,5.714 L42.743,5.714 Z M39.995,0 L9.581,0 C4.298,0 0,4.297 0,9.58 L0,39.995 C0,45.278 4.298,49.575 9.581,49.575 L39.995,49.575 C45.278,49.575 49.576,45.278 49.576,39.995 L49.576,9.58 C49.576,4.297 45.278,0 39.995,0 L39.995,0 Z" id="Fill-152-Copy"></path>
        </g>
    </g>
</svg>