<?xml version="1.0" encoding="UTF-8" standalone="no"?>
<svg width="287px" height="90px" viewBox="0 0 287 90" version="1.1" xmlns="http://www.w3.org/2000/svg" xmlns:xlink="http://www.w3.org/1999/xlink">
    <!-- Generator: Sketch 40.3 (33839) - http://www.bohemiancoding.com/sketch -->
    <title>Artboard 69 Copy 9</title>
    <desc>Created with Sketch.</desc>
    <defs></defs>
    <g id="Page-1" stroke="none" stroke-width="1" fill="none" fill-rule="evenodd">
        <g id="Artboard-69-Copy-9">
            <g id="Group-Copy" transform="translate(5.000000, 0.200000)">
                <polygon id="Combined-Shape" stroke="#D18B65" stroke-width="7.2" points="27.4523932 84.9680129 0 84.9680129 0 4.63198708 54.9047864 4.63198708 54.9047864 84.9680129 27.4523932 84.9680129 54.9047864 84.9680129 54.9047864 38.8905066 27.4523932 63.94151 4.19406718e-11 38.8905066 0 84.9680129 27.4523932 84.9680129 0 84.9680129 0 9.56091922 27.4523932 34.6119226 54.9047864 9.56091922 54.9047864 84.9680129 27.4523932 84.9680129"></polygon>
                <path d="M240.830936,79.6146257 L240.830936,88.3147541 C239.409217,88.828855 237.930652,89.1715838 236.395195,89.3429508 C234.859739,89.5143178 233.352739,89.6 231.874152,89.6 C229.713139,89.6 227.722762,89.3715141 225.902962,88.9145355 C224.083162,88.4575569 222.49086,87.7292582 221.12601,86.7296175 C219.76116,85.7299768 218.694886,84.4304634 217.927158,82.8310383 C217.15943,81.2316131 216.775572,79.2894832 216.775572,77.0045902 L216.775572,57.2118033 L211.378602,57.2118033 C211.417193,57.4094995 211.45326,57.6094267 211.486803,57.8115847 C211.884885,60.2107224 212.083922,62.8097492 212.083922,65.6087432 L212.083922,88.5718033 L199.288515,88.5718033 L199.288515,68.179235 C199.288515,66.9796661 199.245865,65.7372742 199.160561,64.4520219 C199.075258,63.1667695 198.819353,61.9814991 198.392837,60.8961749 C197.966321,59.8108507 197.31234,58.9254679 196.430875,58.24 C195.549409,57.5545321 194.284098,57.2118033 192.634904,57.2118033 C190.98571,57.2118033 189.649314,57.511691 188.625676,58.1114754 C187.602039,58.7112598 186.820105,59.5109604 186.279852,60.5106011 C185.739599,61.5102418 185.384174,62.6383908 185.213568,63.895082 C185.042962,65.1517731 184.95766,66.4655669 184.95766,67.8365027 L184.95766,88.5718033 L172.162253,88.5718033 L172.162253,74.7255997 C171.941916,75.4182937 171.686008,76.0922737 171.394528,76.747541 C170.200284,79.4322903 168.565332,81.7314294 166.489622,83.6450273 C164.413913,85.5586252 161.968593,87.0295031 159.153589,88.0577049 C156.338586,89.0859068 153.338804,89.6 150.154153,89.6 C146.969503,89.6 143.969721,89.0859068 141.154717,88.0577049 C138.339713,87.0295031 135.894393,85.5586252 133.818684,83.6450273 C131.742974,81.7314294 130.108022,79.4322903 128.913778,76.747541 C128.622298,76.0922737 128.36639,75.4182937 128.146053,74.7255997 L128.146053,88.5718033 L115.350646,88.5718033 L115.350646,64.3234973 C115.350646,62.3813382 114.938354,60.7105352 114.113757,59.3110383 C113.28916,57.9115413 111.824812,57.2118033 109.720667,57.2118033 C108.24208,57.2118033 107.005203,57.4545695 106.009999,57.9401093 C105.014796,58.4256491 104.218645,59.0968263 103.621524,59.9536612 C103.024402,60.8104961 102.597892,61.8101218 102.341983,62.9525683 C102.086073,64.0950148 101.958121,65.2945657 101.958121,66.5512568 L101.958121,88.5718033 L89.1627138,88.5718033 L89.1627138,66.5512568 C89.1627138,65.8086666 89.1342799,64.8947231 89.0774111,63.8093989 C89.0205424,62.7240747 88.8215047,61.6958883 88.4802922,60.7248087 C88.1390796,59.7537292 87.5846175,58.9254679 86.8168893,58.24 C86.049161,57.5545321 84.9260199,57.2118033 83.4474321,57.2118033 C81.7982381,57.2118033 80.4618423,57.511691 79.4382047,58.1114754 C78.414567,58.7112598 77.6326333,59.5109604 77.0923801,60.5106011 C76.5521269,61.5102418 76.1967025,62.6383908 76.0260962,63.895082 C75.8554899,65.1517731 75.7701881,66.4655669 75.7701881,67.8365027 L75.7701881,88.5718033 L62.9747813,88.5718033 L62.9747813,46.9298361 L75.2583718,46.9298361 L75.2583718,52.584918 L75.4289772,52.584918 C75.8270585,51.7852055 76.3957376,50.9855049 77.1350315,50.1857923 C77.8743253,49.3860798 78.7557779,48.6720614 79.7794155,48.0437158 C80.8030532,47.4153703 81.9688453,46.901277 83.2768267,46.5014208 C84.5848082,46.1015645 86.0065058,45.9016393 87.5419623,45.9016393 C90.442269,45.9016393 93.0155418,46.5014148 95.2618578,47.7009836 C97.5081737,48.9005524 99.1999939,50.7855609 100.337369,53.3560656 C101.815957,50.6713163 103.607296,48.7577471 105.71144,47.6153005 C107.815584,46.472854 110.403074,45.9016393 113.473987,45.9016393 C116.260556,45.9016393 118.606357,46.3728915 120.511461,47.3154098 C122.416564,48.2579282 123.923563,49.5431613 125.032504,51.1711475 C126.141445,52.7991338 126.937596,54.712703 127.42098,56.9119126 C127.717043,58.258883 127.922439,59.6647682 128.037168,61.1295843 C128.280732,60.3121667 128.572935,59.5203387 128.913778,58.7540984 C130.108022,56.0693491 131.742974,53.7702099 133.818684,51.856612 C135.894393,49.9430141 138.339713,48.4721363 141.154717,47.4439344 C143.969721,46.4157326 146.969503,45.9016393 150.154153,45.9016393 C153.338804,45.9016393 156.338586,46.4157326 159.153589,47.4439344 C161.968593,48.4721363 164.413913,49.9430141 166.489622,51.856612 C168.565332,53.7702099 170.200284,56.0693491 171.394528,58.7540984 C171.686008,59.4093657 171.941916,60.0833457 172.162253,60.7760397 L172.162253,46.9298361 L184.445844,46.9298361 L184.445844,52.584918 L184.616449,52.584918 C185.01453,51.7852055 185.583209,50.9855049 186.322503,50.1857923 C187.061797,49.3860798 187.94325,48.6720614 188.966887,48.0437158 C189.990525,47.4153703 191.156317,46.901277 192.464298,46.5014208 C193.77228,46.1015645 195.193978,45.9016393 196.729434,45.9016393 C199.970953,45.9016393 202.586877,46.4014522 204.577284,47.4010929 C206.210409,48.2212965 207.54681,49.3010626 208.586511,50.640414 L208.586511,46.9298361 L216.775572,46.9298361 L216.775572,34.5914754 L229.570978,34.5914754 L229.570978,46.9298361 L240.830936,46.9298361 L240.830936,55.8870137 C241.782647,54.3935643 242.905796,53.0501026 244.200394,51.856612 C246.276103,49.9430141 248.721423,48.4721363 251.536427,47.4439344 C254.351431,46.4157326 257.351213,45.9016393 260.535863,45.9016393 C263.493039,45.9016393 266.180047,46.4157326 268.596969,47.4439344 C271.013892,48.4721363 273.061136,49.9430141 274.738765,51.856612 C276.416393,53.7702099 277.710138,56.0693491 278.620038,58.7540984 C279.529938,61.4388477 279.984881,64.4377248 279.984881,67.7508197 L279.984881,71.7779235 L250.299538,71.7779235 C250.811356,74.2341835 251.920281,76.1905938 253.626343,77.6472131 C255.332406,79.1038324 257.436519,79.8321311 259.938744,79.8321311 C262.042888,79.8321311 263.82001,79.360879 265.270164,78.4183607 C266.720317,77.4758423 267.985628,76.2620111 269.066134,74.7768306 L278.022919,81.3744262 C275.975644,84.0020532 273.388154,86.0298654 270.260372,87.4579235 C267.132591,88.8859816 263.89112,89.6 260.535863,89.6 C257.351213,89.6 254.351431,89.0859068 251.536427,88.0577049 C248.721423,87.0295031 246.276103,85.5586252 244.200394,83.6450273 C242.905796,82.4515367 241.782647,81.1080751 240.830936,79.6146257 Z M239.978399,78.1507533 C239.515556,78.360159 238.960927,78.5064829 238.314506,78.5897268 C237.205566,78.7325326 236.309896,78.8039344 235.627471,78.8039344 C234.262621,78.8039344 233.167914,78.6182897 232.343317,78.2469945 C231.51872,77.8756994 230.90739,77.3473258 230.509308,76.6618579 C230.111227,75.97639 229.855321,75.1624091 229.741584,74.2198907 C229.627846,73.2773723 229.570978,72.2349055 229.570978,71.092459 L229.570978,57.2118033 L240.052868,57.2118033 C239.783293,57.7109268 239.530833,58.225025 239.295488,58.7540984 C238.101244,61.4388477 237.504131,64.4377248 237.504131,67.7508197 C237.504131,71.0639146 238.101244,74.0627917 239.295488,76.747541 C239.509034,77.2276078 239.736671,77.6953451 239.978399,78.1507533 Z M163.58933,42.6701639 L154.675197,42.6701639 L154.675197,37.4434973 L154.504591,37.4434973 C153.082872,39.671268 151.192015,41.2706691 148.831961,42.2417486 C146.471908,43.2128282 143.983937,43.6983607 141.367974,43.6983607 C139.434436,43.6983607 137.572012,43.4270337 135.780646,42.8843716 C133.98928,42.3417095 132.411196,41.5277286 131.046346,40.4424044 C129.867427,39.5049325 128.90067,38.3756901 128.146053,37.0546513 L128.146053,42.6701639 L115.350646,42.6701639 L115.350646,18.4218579 C115.350646,16.4796989 114.938354,14.8088959 114.113757,13.4093989 C113.28916,12.0099019 111.824812,11.3101639 109.720667,11.3101639 C108.24208,11.3101639 107.005203,11.5529302 106.009999,12.0384699 C105.014796,12.5240097 104.218645,13.195187 103.621524,14.0520219 C103.024402,14.9088567 102.597892,15.9084824 102.341983,17.050929 C102.086073,18.1933755 101.958121,19.3929263 101.958121,20.6496175 L101.958121,42.6701639 L89.1627138,42.6701639 L89.1627138,20.6496175 C89.1627138,19.9070273 89.1342799,18.9930838 89.0774111,17.9077596 C89.0205424,16.8224354 88.8215047,15.7942489 88.4802922,14.8231694 C88.1390796,13.8520899 87.5846175,13.0238286 86.8168893,12.3383607 C86.049161,11.6528927 84.9260199,11.3101639 83.4474321,11.3101639 C81.7982381,11.3101639 80.4618423,11.6100516 79.4382047,12.2098361 C78.414567,12.8096205 77.6326333,13.609321 77.0923801,14.6089617 C76.5521269,15.6086024 76.1967025,16.7367515 76.0260962,17.9934426 C75.8554899,19.2501338 75.7701881,20.5639276 75.7701881,21.9348634 L75.7701881,42.6701639 L62.9747813,42.6701639 L62.9747813,1.02819672 L75.2583718,1.02819672 L75.2583718,6.68327869 L75.4289772,6.68327869 C75.8270585,5.88356613 76.3957376,5.08386557 77.1350315,4.28415301 C77.8743253,3.48444045 78.7557779,2.77042209 79.7794155,2.1420765 C80.8030532,1.51373092 81.9688453,0.999637701 83.2768267,0.599781421 C84.5848082,0.199925141 86.0065058,1.0658141e-13 87.5419623,1.0658141e-13 C90.442269,1.0658141e-13 93.0155418,0.599775423 95.2618578,1.79934426 C97.5081737,2.9989131 99.1999939,4.88392157 100.337369,7.45442623 C101.815957,4.76967692 103.607296,2.85610772 105.71144,1.7136612 C107.815584,0.571214689 110.403074,1.0658141e-13 113.473987,1.0658141e-13 C116.260556,1.0658141e-13 118.606357,0.471252118 120.511461,1.41377049 C122.416564,2.35628887 123.923563,3.64152191 125.032504,5.2695082 C126.141445,6.89749448 126.937596,8.81106369 127.42098,11.0102732 C127.904365,13.2094828 128.146053,15.5657434 128.146053,18.0791257 L128.146053,24.3777593 C129.003587,22.8924899 130.12673,21.6497867 131.515511,20.6496175 C133.022533,19.5642933 134.742787,18.7217516 136.676325,18.1219672 C138.609862,17.5221828 140.614456,17.0794914 142.690166,16.7938798 C144.765876,16.5082682 146.841554,16.3369037 148.917264,16.2797814 C150.992974,16.2226591 152.912265,16.1940984 154.675197,16.1940984 C154.675197,13.9092053 153.864829,12.0955987 152.24407,10.753224 C150.62331,9.41084939 148.704018,8.73967213 146.486137,8.73967213 C144.381992,8.73967213 142.462701,9.18236351 140.728203,10.0677596 C138.993706,10.9531556 137.444056,12.1669868 136.079206,13.7092896 L129.254989,6.68327869 C131.643477,4.45550799 134.430004,2.78470502 137.614654,1.67081967 C140.799305,0.556934321 144.097644,1.0658141e-13 147.509769,1.0658141e-13 C151.263107,1.0658141e-13 154.348191,0.471252118 156.765113,1.41377049 C159.182036,2.35628887 161.115544,3.74148449 162.565698,5.56939891 C164.015851,7.39731333 165.025256,9.63933098 165.593944,12.2955191 C166.162632,14.9517073 166.446971,18.0219862 166.446971,21.5064481 L166.446971,34.8962116 L177.10981,20.3925683 L163.290771,1.02819672 L178.389351,1.02819672 L185.725384,12.3383607 L192.805509,1.02819672 L207.051062,1.02819672 L193.573234,20.3925683 L209.524841,42.6701639 L194.426261,42.6701639 L185.384173,28.7895082 L175.659664,42.6701639 L163.58933,42.6701639 Z M151.518997,24.4196721 C150.552228,24.4196721 149.343785,24.4625132 147.893631,24.5481967 C146.443478,24.6338802 145.050214,24.8766465 143.713798,25.2765027 C142.377383,25.676359 141.240024,26.2761344 140.30169,27.075847 C139.363355,27.8755596 138.894195,28.9894282 138.894195,30.4174863 C138.894195,31.9597891 139.548176,33.1022185 140.856158,33.8448087 C142.164139,34.587399 143.528969,34.9586885 144.950688,34.9586885 C146.2018,34.9586885 147.410243,34.7873241 148.576053,34.4445902 C149.741863,34.1018562 150.779702,33.6163237 151.689602,32.9879781 C152.599502,32.3596326 153.324568,31.559932 153.864821,30.5888525 C154.405074,29.6177729 154.675197,28.4753435 154.675197,27.1615301 L154.675197,24.4196721 L151.518997,24.4196721 Z M139.917828,67.7508197 C139.917828,70.8925476 140.813497,73.4344529 142.604863,75.376612 C144.396229,77.3187711 146.912634,78.2898361 150.154153,78.2898361 C153.395672,78.2898361 155.912077,77.3187711 157.703443,75.376612 C159.494809,73.4344529 160.390479,70.8925476 160.390479,67.7508197 C160.390479,64.6090918 159.494809,62.0671864 157.703443,60.1250273 C155.912077,58.1828682 153.395672,57.2118033 150.154153,57.2118033 C146.912634,57.2118033 144.396229,58.1828682 142.604863,60.1250273 C140.813497,62.0671864 139.917828,64.6090918 139.917828,67.7508197 Z M267.189475,63.0382514 C267.246343,60.867603 266.535495,59.0111553 265.056907,57.4688525 C263.578319,55.9265497 261.673244,55.1554098 259.341625,55.1554098 C257.919906,55.1554098 256.668812,55.3838957 255.588306,55.8408743 C254.507799,56.2978529 253.583696,56.883348 252.815968,57.597377 C252.048239,58.3114061 251.451126,59.1396674 251.024611,60.0821858 C250.598095,61.0247042 250.356406,62.0100495 250.299538,63.0382514 L267.189475,63.0382514 Z" id="Combined-Shape" fill="#D18B65"></path>
            </g>
        </g>
    </g>
</svg>