<?xml version="1.0" encoding="UTF-8" standalone="no"?>
<svg width="49px" height="40px" viewBox="0 0 49 40" version="1.1" xmlns="http://www.w3.org/2000/svg" xmlns:xlink="http://www.w3.org/1999/xlink">
    <!-- Generator: Sketch 40.3 (33839) - http://www.bohemiancoding.com/sketch -->
    <title>twitter-bird</title>
    <desc>Created with Sketch.</desc>
    <defs></defs>
    <g id="Page-1" stroke="none" stroke-width="1" fill="none" fill-rule="evenodd">
        <g id="twitter-bird" fill="#1A1918">
            <path d="M49.263,4.739 C47.452,5.544 45.504,6.087 43.458,6.33 C45.546,5.08 47.148,3.1 47.903,0.738 C45.949,1.897 43.787,2.738 41.485,3.192 C39.641,1.228 37.014,0 34.108,0 C28.526,0 24.001,4.525 24.001,10.107 C24.001,10.899 24.09,11.67 24.262,12.41 C15.863,11.989 8.415,7.965 3.43,1.85 C2.56,3.342 2.062,5.078 2.062,6.931 C2.062,10.438 3.846,13.531 6.558,15.344 C4.902,15.291 3.343,14.837 1.98,14.079 C1.979,14.121 1.979,14.164 1.979,14.207 C1.979,19.103 5.463,23.188 10.087,24.117 C9.239,24.348 8.346,24.472 7.424,24.472 C6.772,24.472 6.139,24.409 5.522,24.29 C6.809,28.305 10.541,31.228 14.963,31.309 C11.504,34.02 7.147,35.636 2.411,35.636 C1.595,35.636 0.791,35.587 0,35.495 C4.474,38.363 9.786,40.036 15.493,40.036 C34.084,40.036 44.249,24.635 44.249,11.279 C44.249,10.841 44.24,10.404 44.221,9.971 C46.195,8.546 47.909,6.766 49.263,4.739" id="Fill-135-Copy"></path>
        </g>
    </g>
</svg>